<?xml version="1.0" encoding="UTF-8"?>
<svg width="165px" height="20px" viewBox="0 0 165 20" version="1.1" xmlns="http://www.w3.org/2000/svg" xmlns:xlink="http://www.w3.org/1999/xlink">
    <title>logo_NAUMEN_2020_pantone_165C</title>
    <defs>
        <polygon id="path-1" points="0.06 0.68 164.276 0.68 164.276 20 0.06 20"></polygon>
    </defs>
    <g id="logo_NAUMEN_2020_pantone_165C" stroke="none" stroke-width="1" fill="none" fill-rule="evenodd">
        <mask id="mask-2" fill="white">
            <use xlink:href="#path-1"></use>
        </mask>
        <g id="Clip-2"></g>
        <path d="M19.148,14.675 C19.148,15.051 18.844,15.356 18.468,15.356 C18.208,15.356 17.972,15.208 17.858,14.977 L12.001,3.12 C11.262,1.626 9.74,0.68 8.073,0.68 L2.191,0.68 C0.981,0.68 0,1.66 0,2.87 L0,20 L5.785,20 L5.785,6.071 C5.785,5.658 6.119,5.323 6.532,5.323 C6.816,5.323 7.077,5.486 7.202,5.74 L13.04,17.56 C13.779,19.054 15.301,20 16.968,20 L22.743,20 C23.952,20 24.933,19.019 24.933,17.809 L24.933,0.68 L19.148,0.68 L19.148,14.675" id="Fill-1" fill="#E3683A" mask="url(#mask-2)"></path>
        <path d="M158.493,0.679 L158.493,14.674 C158.493,15.051 158.187,15.356 157.811,15.356 C157.552,15.356 157.316,15.208 157.201,14.976 L151.344,3.12 C150.606,1.626 149.083,0.679 147.416,0.679 L141.535,0.679 C140.325,0.679 139.343,1.661 139.343,2.87 L139.343,20 L145.128,20 L145.128,6.005 C145.128,5.629 145.433,5.324 145.809,5.324 L145.917,5.324 C146.175,5.324 146.412,5.47 146.528,5.703 L152.384,17.559 C153.122,19.054 154.645,20 156.312,20 L162.086,20 C163.295,20 164.277,19.02 164.277,17.81 L164.277,0.679 L158.493,0.679" id="Fill-3" fill="#E3683A" mask="url(#mask-2)"></path>
        <path d="M70.828,13.896 C70.828,14.702 70.174,15.356 69.368,15.356 L61.077,15.356 C60.271,15.356 59.618,14.702 59.618,13.896 L59.618,0.68 L53.833,0.68 L53.833,15.618 C53.833,18.038 55.794,19.999 58.214,19.999 L72.231,19.999 C74.65,19.999 76.612,18.038 76.612,15.618 L76.612,0.68 L70.828,0.68 L70.828,13.896" id="Fill-4" fill="#E3683A" mask="url(#mask-2)"></path>
        <path d="M114.703,2.87 L114.703,17.81 C114.703,19.019 115.683,20 116.892,20 L135.722,20 L135.722,15.356 L120.487,15.356 L120.487,12.732 L133.968,12.732 L133.968,8.087 L120.487,8.087 L120.487,5.324 L135.722,5.324 L135.722,0.68 L116.892,0.68 C115.683,0.68 114.703,1.66 114.703,2.87" id="Fill-5" fill="#E3683A" mask="url(#mask-2)"></path>
        <path d="M109.061,0.679 L103.227,0.679 C101.56,0.679 99.853,1.537 99.299,3.12 L95.535,13.994 L91.914,3.12 C91.368,1.537 89.655,0.679 87.988,0.679 L82.159,0.679 C80.949,0.679 79.968,1.661 79.968,2.87 L79.968,20 L85.752,20 L85.752,5.997 C85.752,5.625 86.054,5.324 86.425,5.324 C86.678,5.324 86.91,5.466 87.025,5.691 L91.961,18.805 C92.256,19.522 93.088,20 93.912,20 L97.293,20 C98.122,20 98.952,19.522 99.252,18.789 L104.192,5.696 C104.305,5.468 104.539,5.324 104.793,5.324 L104.794,5.324 C105.166,5.324 105.467,5.625 105.467,5.997 L105.467,20 L111.251,20 L111.251,2.87 C111.251,1.661 110.271,0.679 109.061,0.679" id="Fill-6" fill="#E3683A" mask="url(#mask-2)"></path>
        <path d="M36.27,11.373 L38.917,5.785 C39.054,5.502 39.325,5.324 39.62,5.324 C39.915,5.324 40.186,5.502 40.323,5.785 L42.971,11.373 L36.27,11.373 Z M47.058,20 L53.558,20 L45.343,3.05 C44.649,1.594 43.264,0.68 41.751,0.68 L37.609,0.68 C36.097,0.68 34.711,1.594 34.017,3.05 L34.022,3.05 L25.803,20 L32.181,20 L34.069,16.017 L45.171,16.017 L47.058,20 L47.058,20 Z" id="Fill-7" fill="#E3683A" mask="url(#mask-2)"></path>
    </g>
</svg>